<svg width="23" height="22" viewBox="0 0 23 22" fill="none" xmlns="http://www.w3.org/2000/svg">
<path d="M22.9625 16.6561C22.084 12.7491 19.349 7.30569 11.077 6.15571V2.71052C11.077 1.99231 10.6602 1.34518 10.0239 1.07138C9.38759 0.797044 8.6554 0.950796 8.16947 1.45944L0.658386 9.33605C-0.219126 10.2565 -0.21963 11.7434 0.657882 12.6638L8.16947 20.5404C8.65439 21.0491 9.38809 21.2028 10.0244 20.9285C10.6607 20.6542 11.0775 20.007 11.0775 19.2894V15.9558C13.8998 15.9595 17.9684 16.347 20.8629 18.2268C21.3438 18.5396 21.9568 18.519 22.417 18.1736C22.8762 17.8303 23.0922 17.2311 22.9625 16.6561Z" fill="white"/>
</svg>
