<svg width="122" height="62" viewBox="0 0 122 62" fill="none" xmlns="http://www.w3.org/2000/svg">
<rect width="122" height="62" fill="#F5F5F5"/>
<g id="C02_OTP_2" clip-path="url(#clip0_0_1)">
<rect width="375" height="667" transform="translate(-127 -33)" fill="white"/>
<rect id="Rectangle 1" x="-127" y="-33" width="375" height="667" fill="white"/>
<g id="Group 8">
<g id="Saksham">
<path id="Vector" d="M106.009 39.9534C106.06 39.5954 106.776 39.5954 106.725 40.0045C106.623 41.181 106.316 42.3574 105.856 43.4827C105.498 44.3011 105.037 45.2217 104.168 45.5798C103.349 45.9378 102.531 45.6821 101.917 45.1195C101.099 44.4034 100.945 43.0735 100.945 42.0505C100.894 40.8229 101.048 39.5954 101.099 38.3678C101.099 37.8051 101.15 37.1402 100.945 36.6287C100.894 36.4753 100.843 36.3218 100.792 36.2195C100.69 36.0149 100.536 35.9638 100.332 36.1684C99.9735 36.3218 99.7178 36.6799 99.5132 36.9868C98.3879 38.5724 97.9787 40.6695 97.723 42.6643C97.723 43.2269 97.723 43.7896 97.5184 44.3011V44.3522C97.4672 44.4034 97.4672 44.4545 97.4161 44.5057C97.3649 44.5568 97.3649 44.608 97.3138 44.6591C97.1092 45.0171 96.342 45.1706 95.9839 44.9149C94.9098 44.0965 95.1144 41.9482 95.1144 40.7206C95.1655 39.9534 95.1655 39.2373 95.1655 38.4701C95.1655 38.112 95.2167 37.754 95.2167 37.4471C95.2167 37.1913 95.319 36.6287 95.2167 36.4241C95.319 36.1172 95.1655 36.0661 94.7052 36.373C94.5517 36.5776 94.4494 36.7822 94.3471 36.9868C94.1937 37.1913 94.0914 37.4471 94.0403 37.7028C93.7845 38.3678 93.6822 39.0839 93.5288 39.7999C93.3242 40.9764 93.1707 42.1528 93.0173 43.3292C93.0173 43.3804 93.0173 43.4315 93.0173 43.4827C93.0173 44.1988 93.1196 44.9149 92.7104 45.5798C92.4546 46.0401 91.6874 46.2447 91.2782 45.7844C90.7156 45.1706 90.7667 44.3011 90.6644 43.5338C90.6133 42.7666 90.5621 41.9994 90.511 41.2833C90.4087 39.6977 90.4598 38.112 90.511 36.4753C90.6133 35.1965 93.4265 34.8896 93.3242 36.373C93.273 36.8333 93.2219 37.3448 93.2219 37.8051C93.5288 36.7822 94.0914 35.5546 95.2678 35.4523C97.1092 35.2988 97.6718 37.089 97.7741 38.5724C97.7741 38.6747 97.7741 38.7258 97.7741 38.777C97.9787 38.2143 98.1833 37.7028 98.4902 37.1913C99.3597 35.708 101.355 34.327 102.736 35.9638C104.321 37.7028 103.554 40.8229 103.452 42.9712C103.452 43.4315 103.349 44.1476 103.503 44.608C103.759 45.6821 104.782 44.0453 104.935 43.6873C105.549 42.5108 105.856 41.2321 106.009 39.9534Z" fill="#413E50"/>
<path id="Vector_2" d="M91.3765 39.1861C91.4788 38.8792 92.246 38.8792 92.0926 39.2884C91.3765 41.4367 90.7116 46.2958 87.5403 45.9889C85.8524 45.8355 85.1875 44.2499 85.0852 42.7154C85.0852 42.5108 85.0852 42.255 85.034 42.0505C84.676 43.0734 84.1645 43.9941 83.2949 44.6079C81.5559 45.8866 80.226 43.8918 79.7657 42.3573C79.1519 40.4648 79.868 38.0097 81.1978 36.5775C82.4766 35.2988 84.7271 34.9407 85.3409 37.089C85.4944 37.5493 84.5225 37.9585 84.3691 37.447C84.1133 36.5264 83.1415 36.6798 82.5789 37.2424C82.272 37.6516 81.9651 38.112 81.8116 38.6235C81.3513 39.6976 81.3001 40.874 81.3001 42.0505C81.3001 42.7154 81.3001 43.5338 81.8628 44.0453C82.7323 44.8125 83.5507 43.6361 83.9087 42.9711C84.5225 41.897 84.8294 40.6694 85.1363 39.5442C85.1363 39.493 85.1363 39.493 85.1363 39.493C85.2386 38.6746 85.2898 37.8051 85.3921 36.9867C85.5455 35.7591 88.2053 35.4011 88.0518 36.731C87.8984 38.1631 87.7961 39.5953 87.7449 41.0275C87.6938 42.2039 87.5403 43.5338 87.8984 44.6591C88.0518 45.1194 88.103 45.4774 88.819 45.0682C89.0236 44.9148 89.2282 44.6591 89.3817 44.4033C89.7909 43.8407 90.0978 43.2269 90.3024 42.5619C90.7116 41.4878 91.0184 40.3114 91.3765 39.1861Z" fill="#413E50"/>
<path id="Vector_3" d="M81.001 39.1862C81.1033 38.8793 81.8194 38.777 81.7171 39.1862C81.3079 40.5161 80.8476 41.8459 80.2849 43.0735C79.9269 43.9942 79.4154 44.9149 78.6482 45.5798C77.9321 46.1936 76.8068 46.5005 75.9373 45.9378C74.8631 45.2218 74.812 43.7384 74.812 42.562C74.7608 41.1298 75.0166 39.6977 75.1189 38.2655C75.17 37.754 75.3235 37.0379 75.17 36.5264C75.0166 36.1684 75.0677 36.1684 74.6586 36.5776C74.454 36.7822 74.2494 37.0379 74.0959 37.2937C72.766 39.2885 71.9988 41.6413 71.3339 43.943C71.3339 44.1988 71.2827 44.5057 71.2827 44.7614C71.2316 45.6821 69.3902 46.8074 69.2367 45.4775C68.8787 42.204 69.0322 38.777 69.1345 35.5034C69.2879 32.6391 69.4413 29.7748 70.2597 27.0127C70.6178 25.8874 71.027 24.5576 72.0499 23.8926C72.7149 23.4834 73.5333 23.1765 74.1982 23.7903C74.9654 24.4553 75.1189 25.6828 75.0677 26.6547C75.0166 27.9334 74.6585 29.2121 74.2494 30.3885C73.5333 32.3834 72.5614 34.2247 71.385 35.9126C71.385 37.754 71.385 39.5954 71.385 41.4879C71.8453 40.158 72.3568 38.9304 73.0218 37.7029C73.4821 36.9356 74.0448 35.9638 74.9143 35.6057C75.7327 35.2477 76.6022 35.4012 77.0626 36.1172C77.7786 37.1914 77.7275 38.6747 77.6252 39.9023C77.574 41.2321 77.3183 42.6643 77.4717 43.9942C77.5229 44.608 77.7786 45.3752 78.4436 44.7614C79.0062 44.2499 79.3643 43.5338 79.6712 42.8689C80.1826 41.6413 80.5918 40.4649 81.001 39.1862ZM71.9477 27.115C71.5385 29.6725 71.4362 32.3322 71.385 34.9408C72.5614 33.0994 73.4821 31.1046 73.9936 29.0587C74.3517 27.7288 74.6585 26.092 73.9425 24.8133C73.789 24.5576 73.5333 24.1484 73.1752 24.1484C72.5614 24.1484 72.4591 24.711 72.3568 25.069C72.2034 25.734 72.1011 26.4501 71.9477 27.115Z" fill="#413E50"/>
<path id="Vector_4" d="M70.6665 39.1861C71.0246 39.135 70.7688 39.7488 70.5131 39.7999C69.0297 39.9534 67.751 40.5671 66.6257 41.3855C66.6769 41.4367 66.6769 41.4878 66.728 41.539C67.9556 43.7895 68.3137 46.3981 66.6769 48.4952C65.8074 49.6717 62.943 51.4107 62.3804 49.0067C61.8689 46.8073 63.4034 44.2499 64.7332 42.6131C63.6079 40.7717 62.1758 39.135 62.4827 36.8333C62.6361 35.5545 63.4033 34.2758 64.6821 33.7643C65.7051 33.304 66.9838 33.662 67.5976 34.6339C68.0579 35.3499 66.5746 36.5264 66.1654 35.708C65.8585 34.9919 64.989 34.8385 64.5286 35.5545C64.1706 36.2195 64.2729 37.089 64.4775 37.8051C64.8355 38.9304 65.6539 39.9022 66.37 40.9252C67.5976 39.9534 69.0297 39.2884 70.6665 39.1861ZM65.0913 48.9044C66.0631 47.9838 66.012 46.2958 65.7562 45.0683C65.6028 44.3522 65.347 43.6872 64.989 43.0734C64.324 43.8918 63.7614 44.8637 63.4033 45.8866C63.0965 46.6539 62.8407 47.5746 62.943 48.3929C63.1476 49.5694 64.324 49.6717 65.0913 48.9044Z" fill="#413E50"/>
<path id="Vector_5" d="M63.7052 39.5442H63.7564C63.8587 39.1862 64.5236 39.135 64.3702 39.5954C63.9098 41.181 63.296 42.7666 62.4265 44.2499C61.8127 45.3241 60.8409 46.5516 59.6133 46.9097C58.4369 47.2677 57.0559 46.347 56.6467 45.2729C56.3909 44.4545 56.3909 43.6873 56.4421 42.8689C56.4421 42.4597 56.749 40.4138 56.084 40.4138C55.061 40.4649 55.9817 38.5724 56.8513 39.1862C56.9024 39.1862 56.9536 39.1862 57.0047 39.1862C57.3116 39.0327 58.488 38.1121 58.5903 38.0098C58.9995 37.6006 59.6133 37.0379 59.511 36.373C59.3064 35.2989 57.9765 35.7592 57.4651 36.2195C56.9536 36.6287 56.5955 37.1914 56.2886 37.8052C55.2656 39.8511 55.0099 42.2551 54.5496 44.5057C54.5496 44.5568 54.5496 44.6591 54.5496 44.7614C54.4984 45.6821 52.657 46.8074 52.5036 45.4775C52.1456 42.204 52.299 38.777 52.4013 35.5034C52.5547 32.6391 52.7082 29.7748 53.5266 27.0127C53.8846 25.8874 54.2938 24.5576 55.3168 23.8926C55.9817 23.4834 56.8001 23.1765 57.4651 23.7903C58.2323 24.4553 58.3857 25.6828 58.3346 26.6547C58.2834 27.9334 57.9254 29.2121 57.5162 30.3885C56.8001 32.3834 55.8283 34.2247 54.6519 35.9126C54.6519 37.4471 54.6519 38.9304 54.6519 40.4649C54.7542 40.0046 54.8565 39.5954 55.0099 39.1862C55.4702 37.7029 56.2886 36.0149 57.7719 35.35C58.8972 34.8385 60.4828 35.0943 60.2271 36.6287C60.176 37.2937 59.6645 37.8563 59.2041 38.3166C58.8972 38.6235 58.5903 38.8793 58.2323 39.135C58.1811 39.1862 57.8231 39.3396 57.5162 39.4931C58.13 40.0046 58.3857 40.9252 58.4369 41.6925C58.488 42.3574 58.3857 43.0224 58.3857 43.7384C58.3857 44.3522 58.3857 45.2218 58.7949 45.7333C59.9202 47.2166 61.7104 44.1988 62.1708 43.3804C62.7846 42.1528 63.296 40.8741 63.7052 39.5442ZM55.2145 27.115C54.8053 29.6725 54.703 32.3322 54.6519 34.9408C55.8283 33.0994 56.749 31.1046 57.2605 29.0587C57.6185 27.7288 57.9254 26.092 57.2093 24.8133C57.0559 24.5576 56.8001 24.1484 56.4421 24.1484C55.8283 24.1484 55.726 24.711 55.6237 25.069C55.4702 25.734 55.3679 26.4501 55.2145 27.115Z" fill="#413E50"/>
<path id="Vector_6" d="M53.1643 39.1861C53.2666 38.8792 54.0339 38.8792 53.8804 39.2884C53.1643 41.4367 52.4994 46.2958 49.3282 45.9889C47.6402 45.8355 46.9753 44.2499 46.873 42.7154C46.873 42.5108 46.873 42.255 46.8219 42.0505C46.4638 43.0734 45.9523 43.9941 45.0828 44.6079C43.3437 45.8866 42.0138 43.8918 41.5535 42.3573C40.9397 40.4648 41.6558 38.0097 42.9857 36.5775C44.2644 35.2988 46.515 34.9407 47.1287 37.089C47.2822 37.5493 46.3104 37.9585 46.1569 37.447C45.9012 36.5264 44.9293 36.6798 44.3667 37.2424C44.0598 37.6516 43.7529 38.112 43.5995 38.6235C43.1391 39.6976 43.088 40.874 43.088 42.0505C43.088 42.7154 43.088 43.5338 43.6506 44.0453C44.5201 44.8125 45.3385 43.6361 45.6966 42.9711C46.3104 41.897 46.6173 40.6694 46.9242 39.5442C46.9242 39.493 46.9242 39.493 46.9242 39.493C47.0265 38.6746 47.0776 37.8051 47.1799 36.9867C47.3333 35.7591 49.9931 35.4011 49.8397 36.731C49.6862 38.1631 49.5839 39.5953 49.5328 41.0275C49.4816 42.2039 49.3282 43.5338 49.6862 44.6591C49.8397 45.1194 49.8908 45.4774 50.6069 45.0682C50.8115 44.9148 51.0161 44.6591 51.1695 44.4033C51.5787 43.8407 51.8856 43.2269 52.0902 42.5619C52.4994 41.4878 52.8063 40.3114 53.1643 39.1861Z" fill="#413E50"/>
<path id="Vector_7" d="M42.6801 38.9304C43.1916 38.8792 43.1405 39.4419 42.6801 39.4419C40.9922 39.493 39.3554 39.5953 37.6675 39.7488C35.1612 40.0045 32.6549 40.4649 30.2509 41.1298C30.8647 41.4878 31.4785 41.897 31.99 42.4597C34.0359 44.5056 34.1894 47.6257 33.371 50.2343C31.7342 55.5027 26.9262 59.7992 21.709 61.436C19.2027 62.2032 16.2361 62.4078 14.139 60.6176C12.0419 58.8785 12.093 56.0653 13.0137 53.7125C14.9062 48.6999 19.6119 44.9148 24.2665 42.6643C25.2383 42.2039 26.159 41.7947 27.1308 41.4367C26.6705 41.3344 26.2101 41.2321 25.6987 41.1298C19.305 40.0045 12.7579 41.9482 6.41546 40.5672C3.96031 40.0557 1.40286 38.7769 0.431026 36.3218C-0.643104 33.662 0.482175 30.6442 1.70975 28.2402C6.67121 18.6242 15.9292 9.51969 27.2843 8.95705C32.3992 8.65016 37.9233 11.1053 40.225 15.8622C41.5549 18.5219 41.5037 21.642 40.9411 24.5064C40.3273 27.6265 39.5089 30.7465 38.8951 33.8666C38.7417 34.7873 36.798 34.6339 37.0537 33.662C37.4629 32.0253 37.9744 30.4908 38.5882 28.9563C39.7135 25.8874 40.6342 22.7161 40.2761 19.4426C39.9692 16.476 38.4348 13.9185 35.9796 12.2306C30.8647 8.65016 23.8573 10.1846 18.7424 12.9467C13.8832 15.5553 9.94475 19.5449 6.8758 24.046C4.42065 27.6265 -0.643104 35.6569 5.29018 38.5212C7.94993 39.7999 11.1723 39.6465 14.0367 39.5442C17.3614 39.493 20.7372 39.1861 24.113 39.5442C25.9032 39.6976 27.7958 40.0045 29.4325 40.7206C33.729 39.493 38.2302 39.0838 42.6801 38.9304ZM31.8877 45.8355C31.3762 43.6872 29.8929 42.4597 28.0515 41.7436C25.3406 42.7154 22.7832 43.9941 20.4303 45.7332C18.1797 47.37 16.1338 49.5182 14.7528 51.9734C13.3717 54.3263 12.2976 57.9067 14.6505 60.0549C17.1568 62.3055 20.8395 61.1802 23.4481 59.6969C25.8521 58.367 27.8981 56.5257 29.4837 54.2751C31.1716 51.9222 32.5526 48.8022 31.8877 45.8355Z" fill="#413E50"/>
</g>
<g id="Group 4">
<path id="Vector 2" d="M121.659 37.9271C121.249 24.7504 116.11 7.15209 113.591 0C108.213 14.8427 106.143 31.4692 105.78 37.9271C106.036 45.6514 109.43 48.8446 111.094 49.4756C113.207 50.1698 115.896 49.8543 116.857 49.4756C121.108 47.0018 121.829 40.7459 121.659 37.9271Z" fill="#413E50"/>
<path id="Ellipse 6" d="M117.213 55.9631C117.213 57.9571 115.597 59.5736 113.603 59.5736C111.609 59.5736 109.992 57.9571 109.992 55.9631C109.992 53.969 111.609 52.3525 113.603 52.3525C115.597 52.3525 117.213 53.969 117.213 55.9631Z" fill="#F7850F"/>
</g>
<g id="All for your need">
<path id="Vector_8" d="M103.365 56.4999C103.365 56.1436 103.438 55.8187 103.582 55.525C103.731 55.2266 103.936 54.9883 104.196 54.8101C104.456 54.632 104.752 54.543 105.084 54.543C105.397 54.543 105.676 54.6272 105.922 54.7957C106.172 54.9594 106.367 55.1592 106.507 55.395V53.0988H106.998V57.778C106.998 57.8454 107.012 57.8959 107.041 57.9296C107.07 57.9585 107.113 57.9754 107.171 57.9802V58.3701C107.075 58.3846 107 58.3894 106.947 58.3846C106.846 58.3797 106.757 58.3388 106.68 58.2618C106.603 58.1848 106.564 58.1005 106.564 58.0091V57.6408C106.415 57.8863 106.213 58.0813 105.958 58.2257C105.703 58.3701 105.438 58.4423 105.164 58.4423C104.904 58.4423 104.663 58.3894 104.441 58.2835C104.225 58.1776 104.035 58.0331 103.871 57.8502C103.712 57.6673 103.587 57.4603 103.495 57.2292C103.409 56.9933 103.365 56.7502 103.365 56.4999ZM106.507 57.0775V55.915C106.444 55.7417 106.343 55.5852 106.203 55.4456C106.064 55.3012 105.905 55.188 105.727 55.1062C105.553 55.0196 105.38 54.9762 105.207 54.9762C105.005 54.9762 104.822 55.0196 104.658 55.1062C104.494 55.188 104.352 55.3012 104.232 55.4456C104.116 55.59 104.027 55.7537 103.965 55.9366C103.902 56.1196 103.871 56.3073 103.871 56.4999C103.871 56.7021 103.905 56.8946 103.972 57.0775C104.044 57.2605 104.145 57.4242 104.275 57.5686C104.405 57.7082 104.555 57.8165 104.723 57.8935C104.892 57.9706 105.074 58.0091 105.272 58.0091C105.397 58.0091 105.527 57.985 105.662 57.9369C105.797 57.8887 105.924 57.8237 106.044 57.7419C106.17 57.6552 106.273 57.5541 106.355 57.4386C106.437 57.3231 106.487 57.2027 106.507 57.0775Z" fill="#F7850F"/>
<path id="Vector_9" d="M101.005 58.4422C100.735 58.4422 100.485 58.3917 100.254 58.2906C100.023 58.1847 99.8232 58.0426 99.6547 57.8645C99.4862 57.6816 99.3538 57.4722 99.2576 57.2363C99.1661 57.0004 99.1204 56.7477 99.1204 56.4781C99.1204 56.1267 99.1998 55.8041 99.3587 55.5105C99.5223 55.2168 99.7462 54.9833 100.03 54.81C100.314 54.6319 100.637 54.5428 100.998 54.5428C101.369 54.5428 101.691 54.6319 101.965 54.81C102.245 54.9881 102.464 55.224 102.623 55.5177C102.781 55.8065 102.861 56.1243 102.861 56.4709C102.861 56.5094 102.861 56.5479 102.861 56.5864C102.861 56.6201 102.858 56.6466 102.854 56.6658H99.6331C99.6571 56.9354 99.7317 57.1761 99.8569 57.3879C99.9869 57.5949 100.153 57.761 100.355 57.8862C100.562 58.0065 100.786 58.0667 101.027 58.0667C101.272 58.0667 101.503 58.0041 101.72 57.879C101.941 57.7538 102.095 57.5901 102.182 57.3879L102.608 57.5035C102.531 57.6816 102.413 57.8429 102.254 57.9873C102.095 58.1317 101.908 58.2448 101.691 58.3267C101.479 58.4037 101.251 58.4422 101.005 58.4422ZM99.6186 56.312H102.399C102.379 56.0376 102.305 55.7969 102.175 55.5899C102.05 55.3829 101.884 55.2216 101.677 55.1061C101.474 54.9857 101.251 54.9256 101.005 54.9256C100.76 54.9256 100.536 54.9857 100.333 55.1061C100.131 55.2216 99.9652 55.3853 99.8352 55.5971C99.7101 55.8041 99.6379 56.0424 99.6186 56.312Z" fill="#F7850F"/>
<path id="Vector_10" d="M96.7668 58.4422C96.4972 58.4422 96.2469 58.3917 96.0158 58.2906C95.7847 58.1847 95.5849 58.0426 95.4164 57.8645C95.2479 57.6816 95.1156 57.4722 95.0193 57.2363C94.9278 57.0004 94.8821 56.7477 94.8821 56.4781C94.8821 56.1267 94.9615 55.8041 95.1204 55.5105C95.284 55.2168 95.5079 54.9833 95.7919 54.81C96.076 54.6319 96.3985 54.5428 96.7595 54.5428C97.1302 54.5428 97.4528 54.6319 97.7272 54.81C98.0064 54.9881 98.2254 55.224 98.3843 55.5177C98.5431 55.8065 98.6226 56.1243 98.6226 56.4709C98.6226 56.5094 98.6226 56.5479 98.6226 56.5864C98.6226 56.6201 98.6202 56.6466 98.6154 56.6658H95.3948C95.4188 56.9354 95.4935 57.1761 95.6186 57.3879C95.7486 57.5949 95.9147 57.761 96.1169 57.8862C96.3239 58.0065 96.5477 58.0667 96.7884 58.0667C97.0339 58.0667 97.265 58.0041 97.4817 57.879C97.7031 57.7538 97.8571 57.5901 97.9438 57.3879L98.3698 57.5035C98.2928 57.6816 98.1749 57.8429 98.016 57.9873C97.8571 58.1317 97.6694 58.2448 97.4528 58.3267C97.241 58.4037 97.0123 58.4422 96.7668 58.4422ZM95.3803 56.312H98.1604C98.1412 56.0376 98.0666 55.7969 97.9366 55.5899C97.8114 55.3829 97.6453 55.2216 97.4383 55.1061C97.2361 54.9857 97.0123 54.9256 96.7668 54.9256C96.5213 54.9256 96.2974 54.9857 96.0952 55.1061C95.893 55.2216 95.7269 55.3853 95.597 55.5971C95.4718 55.8041 95.3996 56.0424 95.3803 56.312Z" fill="#F7850F"/>
<path id="Vector_11" d="M94.0949 58.37H93.6039V56.2687C93.6039 55.8258 93.5389 55.5032 93.4089 55.3011C93.279 55.0941 93.0744 54.9906 92.7952 54.9906C92.6026 54.9906 92.4124 55.0387 92.2247 55.135C92.0369 55.2264 91.8709 55.354 91.7264 55.5177C91.5868 55.6766 91.4857 55.8595 91.4232 56.0665V58.37H90.9321V54.6078H91.3798V55.4599C91.4809 55.277 91.6133 55.1181 91.777 54.9833C91.9407 54.8437 92.126 54.7354 92.333 54.6584C92.54 54.5814 92.7542 54.5428 92.9757 54.5428C93.1827 54.5428 93.3584 54.5814 93.5028 54.6584C93.6472 54.7354 93.7628 54.8461 93.8494 54.9906C93.9361 55.1302 93.9987 55.3011 94.0372 55.5032C94.0757 55.7006 94.0949 55.9221 94.0949 56.1676V58.37Z" fill="#F7850F"/>
<path id="Vector_12" d="M88.6067 55.0411C88.2794 55.0507 87.9905 55.1422 87.7402 55.3155C87.4947 55.4888 87.3214 55.7271 87.2203 56.0304V58.37H86.7292V54.6078H87.1914V55.5105C87.3214 55.2457 87.4923 55.0315 87.7041 54.8678C87.9207 54.7041 88.1494 54.6127 88.3901 54.5934C88.4382 54.5886 88.4791 54.5862 88.5128 54.5862C88.5514 54.5862 88.5826 54.5886 88.6067 54.5934V55.0411Z" fill="#413E50"/>
<path id="Vector_13" d="M82.4058 56.8175V54.6079H82.8968V56.7309C82.8968 57.1593 82.969 57.4795 83.1134 57.6913C83.2627 57.9031 83.4817 58.009 83.7705 58.009C83.9631 58.009 84.1484 57.9681 84.3266 57.8863C84.5095 57.7996 84.6708 57.6793 84.8104 57.5252C84.95 57.3663 85.0559 57.1834 85.1281 56.9764V54.6079H85.6191V57.7779C85.6191 57.8453 85.6336 57.8959 85.6625 57.9296C85.6913 57.9585 85.7347 57.9753 85.7924 57.9801V58.3701C85.7347 58.3749 85.6889 58.3773 85.6552 58.3773C85.6215 58.3821 85.5902 58.3845 85.5614 58.3845C85.4651 58.3749 85.3808 58.3364 85.3086 58.269C85.2412 58.2016 85.2051 58.1197 85.2003 58.0235L85.1859 57.518C85.0222 57.8068 84.7983 58.0331 84.5143 58.1968C84.2351 58.3604 83.9318 58.4423 83.6045 58.4423C83.2097 58.4423 82.9112 58.3051 82.709 58.0307C82.5069 57.7563 82.4058 57.3519 82.4058 56.8175Z" fill="#413E50"/>
<path id="Vector_14" d="M79.7502 58.4422C79.4807 58.4422 79.2303 58.3917 78.9992 58.2906C78.773 58.1847 78.5756 58.0426 78.4071 57.8645C78.2434 57.6816 78.1159 57.4746 78.0244 57.2435C77.9329 57.0076 77.8872 56.7597 77.8872 56.4997C77.8872 56.2302 77.9329 55.9798 78.0244 55.7488C78.1159 55.5129 78.2459 55.3059 78.4143 55.1278C78.5828 54.9448 78.7802 54.8028 79.0065 54.7017C79.2375 54.5958 79.4879 54.5428 79.7575 54.5428C80.027 54.5428 80.275 54.5958 80.5012 54.7017C80.7275 54.8028 80.9249 54.9448 81.0934 55.1278C81.2618 55.3059 81.3918 55.5129 81.4833 55.7488C81.5748 55.9798 81.6205 56.2302 81.6205 56.4997C81.6205 56.7597 81.5748 57.0076 81.4833 57.2435C81.3918 57.4746 81.2618 57.6816 81.0934 57.8645C80.9297 58.0426 80.7323 58.1847 80.5012 58.2906C80.275 58.3917 80.0246 58.4422 79.7502 58.4422ZM78.3855 56.507C78.3855 56.7862 78.4456 57.0413 78.566 57.2724C78.6912 57.4987 78.8572 57.6792 79.0642 57.814C79.2712 57.944 79.4999 58.0089 79.7502 58.0089C80.0006 58.0089 80.2292 57.9416 80.4362 57.8068C80.6432 57.672 80.8093 57.489 80.9345 57.258C81.0597 57.0221 81.1222 56.7669 81.1222 56.4925C81.1222 56.2133 81.0597 55.9582 80.9345 55.7271C80.8093 55.496 80.6432 55.3131 80.4362 55.1783C80.2292 55.0435 80.0006 54.9761 79.7502 54.9761C79.4999 54.9761 79.2712 55.0459 79.0642 55.1855C78.862 55.3251 78.6984 55.5105 78.5732 55.7415C78.448 55.9678 78.3855 56.2229 78.3855 56.507Z" fill="#413E50"/>
<path id="Vector_15" d="M74.5842 59.5254C74.6516 59.5303 74.7166 59.5327 74.7792 59.5327C74.8418 59.5375 74.8875 59.5351 74.9164 59.5254C74.9742 59.5158 75.0295 59.4821 75.0825 59.4243C75.1354 59.3666 75.198 59.2559 75.2702 59.0922C75.3424 58.9285 75.4435 58.6878 75.5735 58.3701L73.9343 54.6079H74.4542L75.8335 57.8646L77.1044 54.6079H77.5954L75.6457 59.4605C75.612 59.5519 75.5615 59.6362 75.4941 59.7132C75.4267 59.795 75.3424 59.8576 75.2413 59.9009C75.1451 59.9491 75.0247 59.9756 74.8803 59.9804C74.837 59.9852 74.7912 59.9852 74.7431 59.9804C74.6998 59.9804 74.6468 59.9756 74.5842 59.9659V59.5254Z" fill="#413E50"/>
<path id="Vector_16" d="M72.2395 55.0411C71.9122 55.0507 71.6233 55.1422 71.373 55.3155C71.1275 55.4888 70.9542 55.7271 70.8531 56.0304V58.37H70.3621V54.6078H70.8242V55.5105C70.9542 55.2457 71.1251 55.0315 71.3369 54.8678C71.5535 54.7041 71.7822 54.6127 72.0229 54.5934C72.071 54.5886 72.112 54.5862 72.1457 54.5862C72.1842 54.5862 72.2155 54.5886 72.2395 54.5934V55.0411Z" fill="#413E50"/>
<path id="Vector_17" d="M67.6706 58.4422C67.4011 58.4422 67.1507 58.3917 66.9197 58.2906C66.6934 58.1847 66.496 58.0426 66.3275 57.8645C66.1639 57.6816 66.0363 57.4746 65.9448 57.2435C65.8533 57.0076 65.8076 56.7597 65.8076 56.4997C65.8076 56.2302 65.8533 55.9798 65.9448 55.7488C66.0363 55.5129 66.1663 55.3059 66.3348 55.1278C66.5032 54.9448 66.7006 54.8028 66.9269 54.7017C67.158 54.5958 67.4083 54.5428 67.6779 54.5428C67.9475 54.5428 68.1954 54.5958 68.4216 54.7017C68.6479 54.8028 68.8453 54.9448 69.0138 55.1278C69.1822 55.3059 69.3122 55.5129 69.4037 55.7488C69.4952 55.9798 69.5409 56.2302 69.5409 56.4997C69.5409 56.7597 69.4952 57.0076 69.4037 57.2435C69.3122 57.4746 69.1822 57.6816 69.0138 57.8645C68.8501 58.0426 68.6527 58.1847 68.4216 58.2906C68.1954 58.3917 67.945 58.4422 67.6706 58.4422ZM66.3059 56.507C66.3059 56.7862 66.366 57.0413 66.4864 57.2724C66.6116 57.4987 66.7776 57.6792 66.9846 57.814C67.1916 57.944 67.4203 58.0089 67.6706 58.0089C67.921 58.0089 68.1496 57.9416 68.3566 57.8068C68.5636 57.672 68.7297 57.489 68.8549 57.258C68.9801 57.0221 69.0426 56.7669 69.0426 56.4925C69.0426 56.2133 68.9801 55.9582 68.8549 55.7271C68.7297 55.496 68.5636 55.3131 68.3566 55.1783C68.1496 55.0435 67.921 54.9761 67.6706 54.9761C67.4203 54.9761 67.1916 55.0459 66.9846 55.1855C66.7825 55.3251 66.6188 55.5105 66.4936 55.7415C66.3685 55.9678 66.3059 56.2229 66.3059 56.507Z" fill="#413E50"/>
<path id="Vector_18" d="M63.9843 58.3701V54.9978H63.4644V54.6079H63.9843V54.5068C63.9843 54.1987 64.0276 53.9339 64.1142 53.7125C64.2057 53.491 64.3333 53.3226 64.497 53.207C64.6655 53.0867 64.8628 53.0265 65.0891 53.0265C65.2383 53.0265 65.3827 53.0482 65.5224 53.0915C65.662 53.1348 65.7823 53.1926 65.8834 53.2648L65.7318 53.6186C65.6692 53.5657 65.5873 53.5247 65.4862 53.4959C65.3852 53.467 65.2841 53.4525 65.183 53.4525C64.9567 53.4525 64.781 53.5416 64.6558 53.7197C64.5355 53.8978 64.4753 54.1554 64.4753 54.4924V54.6079H65.5151V54.9978H64.4753V58.3701H63.9843Z" fill="#413E50"/>
<path id="Vector_19" d="M60.2363 53.0988H60.7274V57.518C60.7274 57.7058 60.7611 57.8285 60.8285 57.8863C60.8958 57.9441 60.9777 57.973 61.074 57.973C61.1606 57.973 61.2473 57.9633 61.3339 57.9441C61.4206 57.9248 61.4952 57.9056 61.5578 57.8863L61.6444 58.2835C61.553 58.322 61.4398 58.3533 61.305 58.3773C61.1751 58.4014 61.0619 58.4134 60.9657 58.4134C60.7442 58.4134 60.5661 58.3485 60.4313 58.2185C60.3013 58.0885 60.2363 57.9104 60.2363 57.6841V53.0988Z" fill="#413E50"/>
<path id="Vector_20" d="M58.2688 53.0988H58.7598V57.518C58.7598 57.7058 58.7935 57.8285 58.8609 57.8863C58.9283 57.9441 59.0102 57.973 59.1064 57.973C59.1931 57.973 59.2797 57.9633 59.3664 57.9441C59.453 57.9248 59.5277 57.9056 59.5902 57.8863L59.6769 58.2835C59.5854 58.322 59.4723 58.3533 59.3375 58.3773C59.2075 58.4014 59.0944 58.4134 58.9981 58.4134C58.7767 58.4134 58.5986 58.3485 58.4638 58.2185C58.3338 58.0885 58.2688 57.9104 58.2688 57.6841V53.0988Z" fill="#413E50"/>
<path id="Vector_21" d="M55.057 53.2432H55.483L57.6133 58.3701H57.0789L56.4146 56.767H54.111L53.4539 58.3701H52.9124L55.057 53.2432ZM56.299 56.3699L55.2664 53.8353L54.2194 56.3699H56.299Z" fill="#413E50"/>
</g>
</g>
</g>
<defs>
<clipPath id="clip0_0_1">
<rect width="375" height="667" fill="white" transform="translate(-127 -33)"/>
</clipPath>
</defs>
</svg>
