<svg width="12" height="14" viewBox="0 0 12 14" fill="none" xmlns="http://www.w3.org/2000/svg">
<path d="M10.4688 6.3125C11.1289 6.3125 11.6875 6.87109 11.6875 7.53125V12.4062C11.6875 13.0918 11.1289 13.625 10.4688 13.625H1.53125C0.845703 13.625 0.3125 13.0918 0.3125 12.4062V7.53125C0.3125 6.87109 0.845703 6.3125 1.53125 6.3125H2.14062V4.48438C2.14062 2.37695 3.86719 0.625 6 0.625C8.10742 0.625 9.85938 2.37695 9.85938 4.48438V6.3125H10.4688ZM7.82812 6.3125V4.48438C7.82812 3.49414 6.99023 2.65625 6 2.65625C4.98438 2.65625 4.17188 3.49414 4.17188 4.48438V6.3125H7.82812Z" fill="#CCCCCC"/>
</svg>
