<svg width="27" height="20" viewBox="0 0 27 20" fill="none" xmlns="http://www.w3.org/2000/svg">
<g id="Menu / Menu_Alt_03">
<path id="Vector (Stroke)" fill-rule="evenodd" clip-rule="evenodd" d="M0 1.66667C0 0.746192 0.734533 0 1.64062 0H14.7656C15.6717 0 16.4063 0.746192 16.4063 1.66667C16.4063 2.58714 15.6717 3.33333 14.7656 3.33333H1.64062C0.734533 3.33333 0 2.58714 0 1.66667ZM0 10C0 9.07952 0.734533 8.33333 1.64062 8.33333H24.6094C25.5155 8.33333 26.25 9.07952 26.25 10C26.25 10.9205 25.5155 11.6667 24.6094 11.6667H1.64062C0.734533 11.6667 0 10.9205 0 10ZM0 18.3333C0 17.4129 0.734533 16.6667 1.64062 16.6667H14.7656C15.6717 16.6667 16.4063 17.4129 16.4063 18.3333C16.4063 19.2538 15.6717 20 14.7656 20H1.64062C0.734533 20 0 19.2538 0 18.3333Z" fill="white"/>
</g>
</svg>
